<svg width="61" height="51" viewBox="0 0 61 51" fill="none" xmlns="http://www.w3.org/2000/svg">
  <path d="M51.58 19.85a22.23 22.23 0 0 0-6.93-9.09 21.96 21.96 0 0 0-21.79-2.93 22.08 22.08 0 0 0-9.05 6.94 22.35 22.35 0 0 0-3.06 21.95 22.24 22.24 0 0 0 6.81 9.18A21.97 21.97 0 0 0 28 50.44c-.5-1.82-1-3.82-1.45-5.95 1.3.85 2.67 1.6 4.1 2.21 0 0 .1 1.88.24 3.97 1.54.03 3.08-.1 4.6-.4a1.87 1.87 0 0 1 0-.66c.24-1.63.93-4.56 1.07-6.44 1-.94 1.83-2.03 2.5-3.23l-.05.39c-.48 3.7-1.47 7.65-2.07 8.75-.2.36-.44.7-.72 1a22 22 0 0 0 14.61-11.53 22.43 22.43 0 0 0 .75-18.7Zm-1.26 3.3c-.38.37-1.17.62-1.3-.5-.13-1.14-.16-1.93-.16-1.93s-1.66-2.98-2.28-3.01c-.62-.04-5.03 3.01-6.19 4.34-1 1.12-1.2 1.05-1.2 3.02 0 1.48.19 7.1.08 11.39l-7.02 1.88c-2.2.64-4.45 1.14-6.72 1.5l-.86-5.07h-.12l-2.21-11.44s-3.29-1.25-4.5-1.59a3.21 3.21 0 0 0-3.44.55 4.4 4.4 0 0 0-1.49 3.34c.18.4.32.83.42 1.26.04.42-1.04.38-1.73.38s-.79-1.26-.25-2.72c.43-1.13.95-2.22 1.57-3.25.47-.93 1.07-1.77 1.78-2.51 0 0 .12-.3 1.08-.21.96.08 6.27.37 6.27.37l.05-1.97c5.77-.8 11.6-1.2 17.43-1.17v1.6c2.2-1.02 4.59-1.61 7.01-1.74a.78.78 0 0 1 .67.33c.29.38 2.07 2.61 2.28 2.93.58.84 1.1 1.7 1.57 2.61a5.44 5.44 0 0 1-.74 1.6Z" fill="#FDC305"/>
  <path d="m48.64 17.83.86 1.12c.58.84 1.1 1.7 1.57 2.6a5.44 5.44 0 0 1-.74 1.55c-.38.38-1.16.63-1.29-.5-.13-1.13-.18-1.88-.18-1.88s-1.66-2.98-2.28-3.01c-.62-.04-5.02 3.01-6.19 4.34-1 1.12-1.2 1.05-1.2 3.02 0 1.3.14 5.78.1 9.76 1.57.17 3.86.6 4.55 1.63 0 0-.25-6.24 6.73-2.97 0 0 .24-8.5 9.87-6.33a37.71 37.71 0 0 0-11.8-9.33ZM39.57 15.81C39.6 11 39.2 6.2 38.36 1.45c0 0-.13-1.13-.75-.2-.51 1.1-.86 2.26-1.03 3.47a60.54 60.54 0 0 0-11.05.3c-.7-2.4-1.91-3.48-2.49-3.2-.57.3-.64 2.85-.64 2.85l-.29 12.3c5.79-.8 11.62-1.19 17.46-1.16Z" fill="#F06351"/>
  <path d="M39.07 39.94c.1-.93.17-2.16.2-3.52l-7.02 1.88c-2.2.65-4.45 1.17-6.72 1.54l.96 4.34c0 .1 0 .2.06.29 1.3.85 2.67 1.6 4.1 2.22 2.08-1 4.07-2.21 5.93-3.6v.06c.98-.93 1.82-2.01 2.49-3.2Z" fill="#E55645"/>
  <path d="M27.57 13.1c-.05-.1.86.58 1.21.8.35.2.53.36.53.5 0 .15-.23.3-.54.3-.3 0-.8-.1-.86-.22-.07-.13.52 0 .81 0h.25c-.53-.4-1-.86-1.4-1.39ZM34.03 13.19s-.87 1.11-.94 1.16c-.08.06-.15.3.16.26.36-.06.7-.14 1.05-.25.1-.05.06-.17-.1-.15-.17.01-.59.04-.86.1l.73-1.11s.03-.1-.04-.01ZM31.32 18.5c.4-.18.73-.48.94-.87.24-.57 0-.8-.38-.87a2.1 2.1 0 0 0-1.5.3c-.34.32-.3.63 0 .87.28.23.6.42.94.57Z" fill="#000"/>
  <path d="M31.01 19.6a1.48 1.48 0 0 1-1.26.85c-.47.04-.94-.1-1.32-.39-.18-.1-.33-.23-.46-.39a.86.86 0 0 0-.3-.22c-.01 0 .64 3.58 2.2 4.15 1.57.57 1.86-.66 1.9-1 .06-.98-.19-1.96-.7-2.8 0-.27-.02-.1-.06-.2Z" fill="#F06351"/>
  <path d="M29.55 20.58a3 3 0 0 1-2.03-1.24.13.13 0 0 1 0-.17.12.12 0 0 1 .09-.04.12.12 0 0 1 .08.04 2.78 2.78 0 0 0 1.82 1.14 1.8 1.8 0 0 0 1.42-.87l.12-.17.08.2s.33.65.86.69c.54.03.92-.37 1.4-1.12a.12.12 0 0 1 .17-.03.13.13 0 0 1 .04.17c-.57.85-1.11 1.26-1.62 1.22a1.33 1.33 0 0 1-.97-.63 1.95 1.95 0 0 1-1.46.81Z" fill="#000"/>
  <path d="M31.24 32.28a3.24 3.24 0 0 0 3.23-3.26c0-1.8-1.45-3.26-3.23-3.26A3.24 3.24 0 0 0 28 29.02c0 1.8 1.44 3.26 3.23 3.26Z" fill="#FDC305"/>
  <path d="m35.52 26.37-2.7 1.14 1-4.9-6.47 8.49 2.7-1.14-1 4.9 6.47-8.49Zm-6.37 3.33 3.58-4.7-.7 3.47 1.73-.7-3.61 4.7.7-3.47-1.7.7ZM27.94 28.42c.54 0 .97-.43.97-.97a.97.97 0 0 0-.97-.97.97.97 0 0 0-.96.97c0 .54.43.97.96.97ZM33.56 31.95c.38 0 .68-.3.68-.69 0-.38-.3-.68-.68-.68a.68.68 0 0 0 0 1.37ZM34.39 30.06a.3.3 0 0 0 .3-.3.3.3 0 0 0-.3-.3.3.3 0 0 0-.3.3c0 .17.13.3.3.3Z" fill="#111"/>
  <path d="M39.52 17.39a49.73 49.73 0 0 0-4.38 4.52 27.56 27.56 0 0 1-4.58 4.26c-.19-.46-1.4-1.32-1.4-1.32s-2.7-1.87-4.48-3.34c-.96-.8-1.86-1.67-2.7-2.6l-1.73-.1A19.5 19.5 0 0 0 30.6 26.5c.74-.12 2.82-1.62 4.38-2.85a49.89 49.89 0 0 0 5.17-5.13c.43-.52.76-1.1.98-1.74-.98.33-1.6.62-1.6.62ZM22.34 23.33s-3.29-1.25-4.5-1.59a3.21 3.21 0 0 0-3.44.55 4.4 4.4 0 0 0-1.49 3.34c.18.4.32.83.42 1.26.04.42-1.04.38-1.73.38s-.79-1.26-.25-2.72a19.9 19.9 0 0 1 1.57-3.25C8.22 23.76 0 29.46 0 29.46c2.35-.14 4.71-.07 7.06.21 4.52.46 4.3 4.06 4.3 4.06 1.6-.44 3.21-.76 4.85-.96 1.83-.13 1.96 1.84 1.96 1.84l.45 3.35a15.8 15.8 0 0 1 2.29-2.05 5.19 5.19 0 0 1 3.77-1.13l-2.34-11.45Z" fill="#F06351"/>
</svg>
