<svg viewBox="0 0 16 16" fill="none" xmlns="http://www.w3.org/2000/svg"><rect width="16" height="16" rx="4" fill="#EEE"/><path d="M2.47 10.49c-.34-.42-.5-.93-.46-1.45V6.96c-.05-.52.11-1.03.46-1.46.3-.34.83-.5 1.57-.5.75 0 1.25.15 1.51.44.32.36.48.8.44 1.25v.49H4.62v-.53c0-.14-.02-.28-.04-.42a.44.44 0 0 0-.16-.27.61.61 0 0 0-.38-.1c-.1-.01-.2 0-.29.04a.46.46 0 0 0-.2.17c-.1.2-.13.4-.12.61v2.65c-.02.21.03.42.13.62.05.07.12.12.2.16.09.04.18.05.28.04a.483.483 0 0 0 .47-.21c.07-.2.1-.4.1-.6v-.56h1.37v.48c.04.45-.1.9-.4 1.28-.3.31-.8.46-1.52.46s-1.28-.17-1.59-.51ZM7.26 5h1.49L10 11H8.77l-.23-1.33H7.5L7.25 11H6l1.26-6Zm1.15 3.92L8 6.51l-.4 2.41h.8ZM10.9 5.9H10V5h3v.9h-.9V11h-1.2V5.9Z" fill="#111"/></svg>